<svg width="497" height="49" viewBox="0 0 497 49" fill="none" xmlns="http://www.w3.org/2000/svg">
<rect y="0.399048" width="48" height="48" rx="8" fill="#E8F5E9"/>
<g clip-path="url(#clip0_1_1440)">
<path fill-rule="evenodd" clip-rule="evenodd" d="M10.3533 0.593567C15.8761 0.593567 20.3533 5.07072 20.3533 10.5936V0.593567H30.3533C35.8761 0.593567 40.3533 5.07072 40.3533 10.5936C40.3533 16.1164 35.8761 20.5936 30.3533 20.5936C35.8761 20.5936 40.3533 25.0708 40.3533 30.5936C40.3533 33.3359 39.2494 35.8204 37.4618 37.627L37.4244 37.6647L37.3912 37.6977C35.5842 39.4879 33.0979 40.5936 30.3533 40.5936C27.6274 40.5936 25.1562 39.5029 23.3523 37.7341C23.3289 37.7111 23.3055 37.6879 23.2822 37.6647C23.2603 37.6428 23.2385 37.6208 23.2168 37.5987C21.4457 35.7945 20.3533 33.3216 20.3533 30.5936C20.3533 36.1164 15.8761 40.5936 10.3533 40.5936C4.83048 40.5936 0.353333 36.1164 0.353333 30.5936V20.5936H10.3533C4.83048 20.5936 0.353333 16.1164 0.353333 10.5936C0.353333 5.07072 4.83048 0.593567 10.3533 0.593567ZM18.3533 10.5936C18.3533 15.0119 14.7716 18.5936 10.3533 18.5936V2.59357C14.7716 2.59357 18.3533 6.17529 18.3533 10.5936ZM38.3533 30.5936C38.3533 26.1753 34.7716 22.5936 30.3533 22.5936C25.935 22.5936 22.3533 26.1753 22.3533 30.5936H38.3533ZM2.35333 22.5936V30.5936C2.35333 35.0119 5.93505 38.5936 10.3533 38.5936C14.7716 38.5936 18.3533 35.0119 18.3533 30.5936V22.5936H2.35333ZM22.3533 18.5936V2.59357H30.3533C34.7716 2.59357 38.3533 6.17529 38.3533 10.5936C38.3533 15.0119 34.7716 18.5936 30.3533 18.5936H22.3533Z" fill="#5417D7"/>
</g>
<rect x="89" y="0.399048" width="48" height="48" rx="8" fill="#F5F7FA"/>
<g clip-path="url(#clip1_1_1440)">
<path fill-rule="evenodd" clip-rule="evenodd" d="M99.0981 14.3605L89.1123 24.2458C91.1096 26.2231 93.3913 27.8895 95.8789 29.1932C96.5665 30.9988 97.6443 32.6921 99.1123 34.1453C104.635 39.6126 113.59 39.6126 119.112 34.1453C120.58 32.6921 121.658 30.9988 122.346 29.1931C124.833 27.8895 127.115 26.2231 129.112 24.2458L119.135 14.3685C119.127 14.3611 119.12 14.3537 119.112 14.3463C113.59 8.87902 104.635 8.87902 99.1123 14.3463C99.1076 14.3511 99.1028 14.3558 99.0981 14.3605ZM118.157 30.9767C115.247 31.9489 112.192 32.4468 109.112 32.4468C106.033 32.4468 102.978 31.9489 100.068 30.9767C100.383 31.3908 100.731 31.7882 101.112 32.1654C105.531 36.5393 112.694 36.5393 117.112 32.1654C117.493 31.7882 117.842 31.3908 118.157 30.9767ZM101.317 16.1282C102.068 16.619 102.866 17.0389 103.7 17.3812C105.416 18.0848 107.255 18.4469 109.112 18.4469C110.97 18.4469 112.809 18.0848 114.524 17.3812C115.359 17.0389 116.157 16.6189 116.907 16.1282C112.544 12.0184 105.681 12.0184 101.317 16.1282Z" fill="#3B4158"/>
</g>
<rect x="178" y="0.399048" width="48" height="48" rx="8" fill="#F5F7FA"/>
<g clip-path="url(#clip2_1_1440)">
<path d="M232.996 19.9155C233.001 19.8738 233.001 19.8316 232.996 19.7899C233.001 19.756 233.001 19.7213 232.996 19.6873L232.588 16.7546C232.53 16.4038 232.372 16.0758 232.134 15.8075L232.064 15.7276L231.937 15.6021L224.883 9.64552L225.081 9.83953C224.919 9.64964 224.716 9.49776 224.486 9.39507C224.256 9.29238 224.006 9.24149 223.754 9.24615H221.612C221.264 9.23938 220.924 9.34794 220.646 9.55425C220.355 9.34918 220.004 9.24118 219.645 9.24615H217.503C217.222 9.24168 216.945 9.31002 216.7 9.44428C216.455 9.57853 216.25 9.77393 216.107 10.0107C215.885 10.3488 215.802 10.7563 215.874 11.1518L216.142 13.0004C215.964 12.9018 215.763 12.8507 215.56 12.8521H205.189C204.817 12.8543 204.453 12.9613 204.141 13.1601C203.839 13.3453 203.597 13.6103 203.443 13.9247L202.64 13.2514C202.324 12.9647 201.906 12.8093 201.476 12.8178H185.204C184.83 12.8245 184.465 12.9268 184.144 13.1145C183.706 13.3662 183.384 13.7755 183.248 14.2556L178.08 31.201C177.984 31.4803 177.974 31.7814 178.053 32.0659C178.132 32.3504 178.295 32.6056 178.522 32.7986C178.582 32.8478 178.644 32.8936 178.709 32.9355C178.709 32.9355 178.604 32.867 178.546 32.81L185.599 38.778C185.898 39.0473 186.288 39.1978 186.693 39.2002H203.094C203.468 39.1906 203.834 39.0844 204.153 38.8921C204.333 38.7953 204.495 38.6678 204.63 38.5155L204.688 38.4356L204.781 38.3216L204.851 38.196L205.619 38.8465C205.913 39.1051 206.295 39.2473 206.69 39.2458H223.125C223.499 39.2336 223.864 39.1276 224.184 38.9377C224.361 38.8351 224.522 38.7083 224.662 38.5612L224.72 38.4813L224.813 38.3672C224.863 38.295 224.905 38.2187 224.941 38.1389C224.979 38.0698 225.01 37.9972 225.034 37.9222L229.748 22.4488V22.3118C229.754 22.2587 229.754 22.2052 229.748 22.1521V22.0494C229.754 22.0153 229.754 21.9807 229.748 21.9467C229.753 21.8745 229.753 21.802 229.748 21.7298H231.261C231.393 21.7417 231.525 21.7417 231.657 21.7298H231.762C231.847 21.7049 231.929 21.6704 232.006 21.6271H232.123L232.332 21.4674L232.425 21.3989L232.588 21.1935V21.1251L232.705 20.9311C232.698 20.8933 232.698 20.8547 232.705 20.817C232.698 20.7985 232.698 20.7784 232.705 20.7599C232.729 20.693 232.749 20.6243 232.763 20.5545C232.757 20.532 232.757 20.5085 232.763 20.486C232.757 20.452 232.757 20.4173 232.763 20.3833C232.763 20.3833 232.996 19.9383 232.996 19.9155Z" fill="black"/>
<path d="M201.953 14.1187C202.015 14.1735 202.058 14.2455 202.077 14.3251C202.095 14.4047 202.089 14.4879 202.058 14.5637L196.901 31.4977C196.836 31.6826 196.704 31.8372 196.529 31.9314C196.387 32.0246 196.222 32.0797 196.052 32.0911H179.663C179.523 32.0845 179.391 32.0277 179.291 31.9314C179.231 31.8775 179.189 31.8074 179.171 31.7302C179.152 31.653 179.157 31.5721 179.186 31.4977L184.354 14.5637C184.413 14.3765 184.542 14.2178 184.715 14.1187C184.859 14.0322 185.023 13.9813 185.192 13.9703H201.58C201.719 13.9717 201.852 14.0247 201.953 14.1187ZM193.398 28.0858L196.482 17.9756H187.846L184.773 28.0858H193.398ZM217.596 14.2899C217.652 14.3536 217.722 14.4041 217.801 14.4377C217.88 14.4712 217.965 14.487 218.05 14.4838H220.18C220.262 14.4846 220.342 14.4651 220.413 14.4272C220.484 14.3893 220.544 14.3341 220.588 14.267C220.626 14.2146 220.652 14.1553 220.666 14.0926C220.68 14.0298 220.681 13.965 220.669 13.9019L220.25 10.8894C220.21 10.7499 220.139 10.6212 220.041 10.5128C219.985 10.4491 219.915 10.3986 219.836 10.365C219.758 10.3314 219.673 10.3156 219.587 10.3188H217.457C217.376 10.318 217.296 10.3375 217.224 10.3755C217.153 10.4134 217.093 10.4685 217.049 10.5356C216.968 10.6954 216.933 10.7981 216.968 10.8894L217.399 13.9019C217.421 14.0486 217.49 14.1845 217.596 14.2899ZM224.359 10.8665C224.319 10.7271 224.248 10.5984 224.15 10.49C224.096 10.4265 224.028 10.376 223.952 10.3423C223.875 10.3087 223.791 10.2928 223.707 10.296H221.566C221.486 10.2938 221.407 10.3127 221.337 10.3509C221.268 10.3891 221.21 10.445 221.17 10.5128C221.092 10.614 221.059 10.7412 221.077 10.8665L221.507 13.8791C221.534 14.0242 221.603 14.1588 221.705 14.267C221.762 14.3295 221.832 14.3792 221.911 14.4126C221.989 14.4461 222.074 14.4626 222.159 14.461H224.301C224.381 14.462 224.459 14.4426 224.528 14.4045C224.598 14.3665 224.656 14.3112 224.697 14.2442C224.737 14.1932 224.765 14.1339 224.78 14.0707C224.794 14.0075 224.793 13.942 224.778 13.8791L224.359 10.8665ZM215.723 15.431L215.513 13.9475H205.189C205.027 13.9563 204.87 14.0075 204.735 14.0959C204.649 14.1417 204.574 14.2052 204.516 14.2821C204.458 14.3589 204.417 14.4472 204.397 14.5409L203.536 17.3708C203.502 17.4415 203.49 17.5209 203.502 17.5983C203.515 17.6757 203.551 17.7475 203.606 17.8045C203.704 17.8949 203.832 17.9476 203.967 17.9528H216.514L213.43 28.063H200.917C200.756 28.0666 200.599 28.114 200.463 28.1999C200.298 28.3024 200.178 28.4609 200.126 28.645L199.253 31.4749C199.224 31.5475 199.217 31.6264 199.231 31.7029C199.245 31.7795 199.281 31.8506 199.334 31.9085C199.429 32.005 199.558 32.0622 199.695 32.0683H216.13C216.3 32.0539 216.464 31.9991 216.607 31.9085C216.779 31.8139 216.908 31.659 216.968 31.4749L221.694 16.0015H216.374C216.29 16.0031 216.206 15.9878 216.128 15.9564C216.05 15.925 215.979 15.8782 215.92 15.8189C215.824 15.7155 215.756 15.5899 215.723 15.4538V15.431Z" fill="white"/>
</g>
<rect x="267" y="0.399048" width="48" height="48" rx="8" fill="#F5F7FA"/>
<g clip-path="url(#clip3_1_1440)">
<path d="M310.997 13.8106C310.997 13.8444 310.997 13.8866 310.988 13.912C310.944 14.2417 310.944 14.5714 310.97 14.9095C310.988 14.994 311.005 15.0786 311.076 15.1462C311.19 15.273 311.366 15.2476 311.437 15.0955C311.472 15.0194 311.472 14.9433 311.455 14.8672C311.366 14.546 311.349 14.2079 311.34 13.8782C311.34 13.8613 311.34 13.8359 311.34 13.8106C311.437 13.8021 311.525 13.7936 311.604 13.7936C311.666 13.7852 311.719 13.7767 311.763 13.7514C311.895 13.6838 311.895 13.54 311.754 13.4724C311.701 13.4471 311.631 13.4386 311.569 13.4386C311.349 13.4471 311.129 13.4471 310.908 13.4471C310.829 13.4471 310.75 13.4555 310.671 13.464C310.627 13.4724 310.574 13.4724 310.539 13.4978C310.477 13.5231 310.442 13.5654 310.442 13.6246C310.45 13.6838 310.477 13.7176 310.539 13.7429C310.574 13.7683 310.618 13.7767 310.662 13.7767C310.768 13.7852 310.882 13.8021 310.997 13.8106ZM313.419 14.1994C313.419 14.2079 313.427 14.2163 313.427 14.2163C313.463 14.4446 313.498 14.6644 313.524 14.8841C313.533 14.9602 313.542 15.0279 313.595 15.087C313.709 15.2307 313.886 15.2138 313.965 15.0617C314 14.9856 314.009 14.9095 313.991 14.825C313.938 14.5714 313.912 14.3178 313.859 14.0726C313.824 13.9204 313.78 13.7767 313.736 13.6415C313.709 13.557 313.648 13.4978 313.542 13.4893C313.436 13.4724 313.357 13.5231 313.313 13.5992C313.26 13.6668 313.216 13.7345 313.181 13.8106C313.119 13.9458 313.066 14.0811 312.996 14.2079C312.987 14.2417 312.978 14.267 312.961 14.2924C312.952 14.2755 312.943 14.267 312.943 14.267C312.829 14.0557 312.723 13.8444 312.608 13.6415C312.591 13.6246 312.582 13.6077 312.573 13.5908C312.52 13.5147 312.459 13.4724 312.362 13.4724C312.274 13.4809 312.203 13.5316 312.159 13.6077C312.142 13.6415 312.142 13.6668 312.133 13.7007C312.098 13.9712 312.053 14.2417 312.018 14.5122C312.001 14.6644 311.992 14.8165 311.992 14.9687C311.983 15.0025 311.992 15.0448 312.009 15.0786C312.027 15.1462 312.08 15.1885 312.15 15.1969C312.238 15.2054 312.3 15.18 312.327 15.1124C312.353 15.0617 312.362 15.0194 312.371 14.9771C312.406 14.825 312.432 14.6813 312.459 14.5376C312.476 14.453 312.485 14.3854 312.512 14.2924C312.529 14.3262 312.547 14.3516 312.564 14.3769C312.644 14.4784 312.723 14.5798 312.82 14.6644C312.917 14.732 312.996 14.7235 313.075 14.6474C313.093 14.6305 313.102 14.6221 313.119 14.6052C313.199 14.4868 313.295 14.3685 313.375 14.2501C313.392 14.2332 313.401 14.2163 313.419 14.1994Z" fill="#3A3B7B"/>
<path d="M293.124 13.9767C293.063 14.1373 293.051 14.253 293.08 14.3492C293.111 14.4801 293.192 14.5229 293.302 14.4896C294.337 14.2441 296.605 14.941 297.445 15.1353C297.643 15.176 297.804 14.9306 297.669 14.7106C297.472 14.4975 295.204 13.5852 294.339 13.5355C294 13.5171 293.394 13.4336 293.124 13.9767Z" fill="#3A3B7B"/>
<path d="M301.99 11.0235C302.101 11.0845 302.162 11.1428 302.193 11.2079C302.238 11.2933 302.214 11.3524 302.138 11.3825C301.454 11.7029 300.544 13.0819 300.177 13.5576C300.088 13.667 299.882 13.6034 299.851 13.4235C299.858 13.22 300.664 11.7234 301.115 11.3158C301.291 11.1566 301.584 10.8444 301.99 11.0235Z" fill="#3A3B7B"/>
<path d="M296.544 10.3446C296.677 10.2488 296.815 10.2152 296.885 10.2775C297.917 11.1244 298.464 12.4655 298.803 13.6933C298.815 13.7219 298.816 13.7629 298.806 13.8057C298.802 13.8423 298.774 13.881 298.73 13.9109C298.682 13.9439 298.642 13.954 298.622 13.9255C298.17 13.3352 295.587 11.0384 296.544 10.3446Z" fill="#3A3B7B"/>
<path d="M274.695 25.0277C274.943 24.8509 275.211 24.7038 275.496 24.5897C275.793 24.508 276.111 24.5215 276.4 24.6283C276.689 24.7351 276.933 24.9292 277.097 25.1814C277.244 25.4329 277.301 25.7233 277.26 26.0088C277.22 26.2942 277.084 26.5594 276.873 26.7643C276.709 26.9304 276.523 27.0751 276.321 27.1946C275.416 27.7556 274.503 28.2857 273.59 28.8467C273.404 28.9871 273.206 29.113 272.998 29.2232C272.682 29.3744 272.321 29.4148 271.978 29.3376C271.634 29.2605 271.33 29.0705 271.116 28.8006C270.957 28.6095 270.823 28.4005 270.716 28.1782C269.851 26.4339 268.955 24.6972 268.122 22.9222C267.738 22.1538 267.426 21.2701 267.121 20.4172C266.99 20.1694 266.964 19.8821 267.05 19.6163C267.135 19.3506 267.326 19.1274 267.58 18.9943C267.835 18.8611 268.133 18.8286 268.412 18.9034C268.692 18.9783 268.929 19.1548 269.075 19.3952C269.523 19.9664 269.919 20.5731 270.26 21.2087C271.124 22.7455 271.949 24.2823 272.782 25.773C272.83 25.8554 272.884 25.9349 272.942 26.0112C273.569 25.7583 274.158 25.4277 274.695 25.0277Z" fill="#3A3B7B"/>
<path d="M283.635 24.4916C281.658 26.7123 278.343 26.1513 276.678 23.2928C275.493 21.2642 275.285 17.9139 277.863 15.8008C278.413 15.3584 279.072 15.057 279.776 14.9248C280.64 14.8059 281.521 14.9522 282.294 15.3428C283.066 15.7333 283.689 16.3482 284.076 17.0994C285.485 19.5584 285.285 22.6935 283.635 24.4916ZM282.835 19.3124C282.625 18.7082 282.203 18.1923 281.642 17.8524C281.324 17.6351 280.938 17.5295 280.549 17.5533C280.16 17.5771 279.791 17.7288 279.504 17.9831C278.359 18.959 278.119 21.2719 278.952 22.6474C279.058 22.8717 279.214 23.071 279.409 23.2314C279.603 23.3918 279.832 23.5095 280.079 23.576C280.326 23.6427 280.586 23.6566 280.839 23.617C281.092 23.5774 281.334 23.4851 281.546 23.3466C282.166 22.8848 282.622 22.2489 282.848 21.5273C283.075 20.8057 283.062 20.0342 282.811 19.3202L282.835 19.3124Z" fill="#3A3B7B"/>
<path d="M291.706 20.2806C291.503 20.3224 291.294 20.3249 291.09 20.288C290.887 20.251 290.693 20.1754 290.521 20.0655C290.37 19.9826 290.24 19.8686 290.14 19.7318C290.04 19.5949 289.974 19.4385 289.945 19.2739C289.916 19.1093 289.925 18.9406 289.972 18.7798C290.019 18.6191 290.102 18.4703 290.216 18.3442C290.415 18.0909 290.697 17.9095 291.017 17.8294C291.852 17.5969 292.711 17.4551 293.579 17.4068C293.77 17.3855 293.963 17.401 294.147 17.4524C294.332 17.5038 294.503 17.5899 294.653 17.7059C294.802 17.8218 294.925 17.9653 295.016 18.1277C295.106 18.2901 295.162 18.4682 295.18 18.6516C295.43 19.5526 295.458 20.4973 295.26 21.4103C294.54 24.3609 292.058 25.3752 289.272 24.4301C288.49 24.1774 287.804 23.7065 287.302 23.0777C286.633 22.3204 286.159 21.4229 285.917 20.4574C285.721 19.5976 285.743 18.7055 285.98 17.8553C286.216 17.0052 286.662 16.2217 287.278 15.5703C287.863 14.8623 288.623 14.3051 289.488 13.9489C290.035 13.6597 290.674 13.5774 291.281 13.7184C291.419 13.755 291.544 13.8262 291.643 13.9248C291.742 14.0233 291.813 14.1456 291.846 14.2788C291.88 14.4121 291.875 14.5515 291.834 14.6827C291.792 14.8139 291.715 14.9319 291.61 15.0247C291.41 15.1984 291.192 15.3528 290.961 15.4858C290.249 15.9208 289.63 16.4814 289.136 17.1378C288.812 17.5626 288.589 18.0504 288.482 18.5668C288.375 19.0832 288.388 19.6158 288.519 20.127C288.701 20.8241 289.104 21.4497 289.672 21.9174C291.433 23.4542 293.723 21.9711 293.323 19.8734C292.738 20.0117 292.226 20.1577 291.706 20.2806Z" fill="#3A3B7B"/>
<path d="M302.466 24.6145C299.864 26.1514 296.902 24.6145 296.253 21.3872C295.781 19.082 296.678 15.8546 299.816 14.6251C300.484 14.3692 301.208 14.2793 301.922 14.3639C302.779 14.5145 303.565 14.9196 304.17 15.5221C304.775 16.1245 305.167 16.8939 305.292 17.7219C305.821 20.4651 304.62 23.3927 302.466 24.6145ZM303.371 19.4431C303.37 18.8047 303.135 18.187 302.706 17.6988C302.477 17.3968 302.146 17.1804 301.769 17.0865C301.393 16.9926 300.994 17.027 300.641 17.184C299.232 17.7679 298.239 19.8887 298.599 21.4487C298.627 21.6935 298.709 21.9296 298.842 22.1404C298.974 22.3512 299.153 22.5318 299.366 22.6694C299.579 22.8069 299.82 22.8983 300.074 22.937C300.327 22.9756 300.586 22.9607 300.833 22.8933C301.578 22.6436 302.222 22.1768 302.677 21.5583C303.132 20.9397 303.375 20.2002 303.371 19.4431Z" fill="#3A3B7B"/>
<path d="M307.924 25.26C307.884 25.5413 307.73 25.796 307.495 25.9682C307.26 26.1404 306.964 26.216 306.671 26.1783C306.378 26.1406 306.112 25.9927 305.933 25.7671C305.753 25.5417 305.675 25.2569 305.714 24.9757C305.753 24.6945 305.907 24.4397 306.142 24.2675C306.377 24.0953 306.674 24.0197 306.967 24.0574C307.26 24.0951 307.525 24.243 307.705 24.4685C307.884 24.6941 307.963 24.9788 307.924 25.26ZM307.227 14.8941C307.379 14.6709 307.603 14.5009 307.864 14.4095C308.125 14.3181 308.41 14.3102 308.676 14.3869C308.947 14.4519 309.186 14.6042 309.354 14.8182C309.521 15.0322 309.607 15.295 309.597 15.5626C309.562 15.9918 309.495 16.418 309.397 16.8382C309.132 18.2598 308.876 19.6813 308.596 21.0875C308.468 21.6485 308.3 22.1864 308.116 22.755C308.052 22.9327 307.945 23.0933 307.803 23.2237C307.716 23.3218 307.604 23.397 307.478 23.4424C307.351 23.4879 307.215 23.502 307.082 23.4836C306.949 23.4653 306.823 23.4149 306.715 23.3373C306.607 23.2596 306.522 23.1571 306.466 23.0393C306.371 22.828 306.32 22.6009 306.314 22.3708C306.314 21.4179 306.314 20.4574 306.378 19.4969C306.487 18.1261 306.701 16.7649 307.019 15.4243C307.056 15.2447 307.127 15.0729 307.227 14.9171V14.8941Z" fill="#3A3B7B"/>
<path fill-rule="evenodd" clip-rule="evenodd" d="M271.313 31.4349C271.218 31.6374 271.192 31.8632 271.238 32.0805C271.269 32.3669 271.337 32.6487 271.439 32.9193C271.568 33.2507 271.711 33.5784 271.888 33.9823C271.929 34.0752 271.971 34.1723 272.016 34.2744C272.254 34.8215 272.554 35.5208 272.953 36.5329C273.066 36.8204 273.167 37.1102 273.268 37.4021C273.309 37.52 273.35 37.6383 273.392 37.7569C273.542 38.1784 273.801 38.5571 274.144 38.8573C274.289 39.0222 274.482 39.1425 274.699 39.2026C274.92 39.2639 275.155 39.26 275.373 39.1914C275.592 39.1228 275.784 38.9927 275.924 38.818C276.062 38.6467 276.144 38.4403 276.159 38.2246C276.249 37.8045 276.218 37.3689 276.071 36.9639C275.837 36.2914 275.571 35.618 275.265 34.9593L275.263 34.9564C274.758 33.9258 274.245 32.9024 273.708 31.8786L273.704 31.8714C273.547 31.6046 273.342 31.3662 273.1 31.1667C272.942 30.9887 272.725 30.8686 272.486 30.8272C272.241 30.785 271.988 30.8276 271.773 30.9475C271.57 31.059 271.408 31.2296 271.313 31.4349Z" fill="#3A3B7B"/>
<path fill-rule="evenodd" clip-rule="evenodd" d="M279.022 28.8972C278.231 28.7004 277.404 28.6718 276.6 28.8132C275.977 28.8721 275.365 29.0099 274.94 29.2831C274.723 29.4221 274.548 29.6006 274.451 29.8274C274.353 30.0555 274.341 30.3164 274.421 30.6071C274.567 31.1395 274.757 31.6571 274.947 32.1731L274.977 32.2567L274.978 32.2585C275.548 33.7576 276.124 35.2515 276.705 36.7404C276.773 36.975 276.869 37.2013 276.991 37.4148L276.993 37.4188C277.154 37.684 277.361 37.9212 277.604 38.1204C277.726 38.23 277.876 38.3058 278.039 38.3396C278.204 38.3738 278.376 38.3639 278.535 38.3109C278.694 38.258 278.836 38.1641 278.943 38.0394C279.049 37.9167 279.118 37.7689 279.144 37.6117C279.249 37.1844 279.215 36.7366 279.047 36.3282C278.995 36.1908 278.954 36.0503 278.91 35.9025C278.896 35.8532 278.881 35.8031 278.866 35.752C280.196 35.253 281.611 34.5822 282.108 33.0214C282.303 32.4821 282.32 31.8981 282.155 31.3494C281.99 30.8002 281.652 30.3134 281.187 29.9561C280.555 29.4558 279.816 29.0944 279.022 28.8972ZM276.829 30.8115C276.855 30.8043 276.881 30.7975 276.908 30.7913C277.773 30.6606 278.659 30.8347 279.402 31.2813C279.729 31.4998 279.863 31.7425 279.886 31.9761C279.91 32.2166 279.819 32.4772 279.636 32.7277C279.29 33.201 278.659 33.5797 278.089 33.6503C277.673 32.7317 277.251 31.7759 276.829 30.8115Z" fill="#3A3B7B"/>
<path d="M284.299 27.2157C285.242 26.7979 286.409 26.7257 287.323 27.0194C287.553 27.0838 287.753 27.2229 287.888 27.4131C288.022 27.602 288.084 27.8297 288.063 28.0574C288.062 28.2052 288.024 28.3505 287.953 28.4817C287.88 28.6152 287.775 28.7301 287.647 28.8165C287.519 28.9029 287.371 28.9585 287.215 28.9783C287.06 28.9982 286.901 28.9819 286.754 28.9307L286.743 28.9268L286.732 28.9215C286.657 28.8836 286.577 28.855 286.494 28.8364L286.488 28.8353C285.846 28.6715 285.239 28.9429 285.018 29.2765C284.912 29.4355 284.899 29.5961 284.987 29.7422C285.082 29.8986 285.313 30.0741 285.78 30.1992C285.909 30.233 286.04 30.2657 286.174 30.299C286.544 30.3908 286.928 30.4863 287.299 30.6185L287.301 30.6191C289.015 31.2449 289.653 32.5412 289.435 33.7604C289.218 34.966 288.169 36.0633 286.592 36.3221C286.018 36.4442 285.42 36.4205 284.858 36.2531C284.295 36.0852 283.788 35.779 283.386 35.3645L283.376 35.3537C283.249 35.1976 283.164 35.0142 283.126 34.8195C283.091 34.6439 283.11 34.4624 283.179 34.2963C283.247 34.1313 283.364 33.9885 283.514 33.8844C283.672 33.7664 283.863 33.6956 284.063 33.6809C284.263 33.6662 284.462 33.7078 284.637 33.8004C284.812 33.8815 284.975 33.9849 285.121 34.1079L285.123 34.1101C285.382 34.3368 285.694 34.3959 285.994 34.3412C286.298 34.2857 286.583 34.113 286.767 33.884C286.95 33.6564 287.023 33.3861 286.936 33.1236C286.849 32.8593 286.585 32.5631 286.007 32.3154C285.856 32.2538 285.699 32.2041 285.536 32.1557C285.492 32.1427 285.447 32.1297 285.402 32.1165C285.281 32.0814 285.157 32.0452 285.036 32.0053C284.952 31.9779 284.869 31.952 284.786 31.9262C284.561 31.8559 284.342 31.7873 284.131 31.6954C283.672 31.5452 283.275 31.2569 282.999 30.8732C282.723 30.4878 282.584 30.0271 282.603 29.5596C282.604 28.4205 283.351 27.6358 284.299 27.2157Z" fill="#3A3B7B"/>
<path d="M296.249 27.0943C296.066 27.0086 295.864 26.968 295.661 26.976C295.457 26.984 295.259 27.0404 295.085 27.1403C294.911 27.2394 294.766 27.3782 294.661 27.5444C294.566 27.6843 294.5 27.8408 294.467 28.0051C294.434 28.1692 294.435 28.338 294.469 28.5018C294.503 28.7123 294.541 28.917 294.578 29.1189C294.64 29.453 294.7 29.7795 294.739 30.1125L294.741 30.1209C294.831 30.6431 294.878 31.1713 294.882 31.7005L294.883 31.708C294.914 32.2796 294.711 32.84 294.318 33.2704L294.311 33.2781C294.184 33.4354 294.013 33.5555 293.817 33.6249C293.622 33.6943 293.411 33.7102 293.207 33.6709C293.003 33.6317 292.815 33.5387 292.663 33.4025C292.511 33.2663 292.401 33.0916 292.347 32.8991C292.23 32.4933 292.162 32.0759 292.145 31.6552L292.344 28.6061C292.347 28.5663 292.351 28.5254 292.354 28.4842C292.362 28.3916 292.37 28.2972 292.373 28.2092C292.378 28.0798 292.373 27.9467 292.342 27.8206C292.31 27.6919 292.249 27.5693 292.14 27.465C292.033 27.3617 291.888 27.2855 291.705 27.2337C291.375 27.142 291.096 27.1449 290.864 27.2396C290.631 27.3343 290.472 27.5102 290.359 27.7133C290.247 27.9147 290.175 28.1532 290.121 28.392C290.08 28.5692 290.048 28.7553 290.017 28.9324C290.006 28.9934 289.996 29.0533 289.985 29.1115L289.985 29.1133C289.82 30.0845 289.771 31.0706 289.839 32.0525C289.851 32.5832 289.967 33.107 290.179 33.5971C290.418 34.2296 290.852 34.7776 291.422 35.1687C291.994 35.5607 292.676 35.7767 293.379 35.7881C294.081 35.7995 294.771 35.6058 295.356 35.2327C295.94 34.8601 296.393 34.3261 296.654 33.7013C297.02 32.9055 297.192 32.04 297.156 31.1707C297.135 30.5362 297.099 29.8967 297.063 29.2605C297.046 28.9484 297.028 28.637 297.012 28.3275C297.004 28.0171 296.898 27.7165 296.707 27.466C296.589 27.3076 296.431 27.1799 296.249 27.0943Z" fill="#3A3B7B"/>
<path d="M302.717 31.8754C302.699 31.898 302.679 31.9214 302.659 31.9458C302.51 31.1227 302.372 30.2999 302.234 29.4758C302.185 29.1801 302.135 28.8832 302.085 28.5872L302.08 28.5541L302.061 28.5256C302.027 28.4719 302.023 28.4192 302.023 28.3069V28.2939L302.021 28.2811C301.984 28.0491 301.875 27.8333 301.708 27.6618C301.541 27.4908 301.325 27.3717 301.087 27.3201C300.85 27.2638 300.6 27.2762 300.37 27.3557C300.14 27.435 299.94 27.5775 299.794 27.7653C299.673 27.9095 299.574 28.0694 299.499 28.2402C299.331 28.6082 299.16 28.9772 298.989 29.3472L298.987 29.3535C298.56 30.2771 298.131 31.2069 297.714 32.144L297.713 32.147C297.457 32.7547 297.246 33.3949 297.035 34.0332C296.993 34.1606 296.951 34.2879 296.909 34.4149C296.833 34.6163 296.799 34.8303 296.811 35.0441C296.797 35.2356 296.845 35.4266 296.948 35.5913C297.053 35.7594 297.21 35.8916 297.397 35.9694C297.596 36.053 297.818 36.0707 298.028 36.0199C298.238 35.969 298.425 35.8528 298.558 35.6893C298.729 35.488 298.876 35.2684 298.995 35.0357C299.348 34.3425 299.686 33.6408 300.022 32.9422C300.152 32.6719 300.278 32.4299 300.422 32.1664C300.432 32.1988 300.442 32.2305 300.452 32.2623C300.603 32.8987 300.857 33.5082 301.205 34.0686C301.271 34.1873 301.363 34.291 301.474 34.3727C301.587 34.4553 301.717 34.5133 301.856 34.5428C301.994 34.5722 302.138 34.5724 302.277 34.5432C302.415 34.514 302.546 34.456 302.658 34.3737L302.882 34.2132L304.616 32.8115L304.513 33.4387C304.372 34.3007 304.233 35.1555 304.084 36.0106C303.987 36.3895 303.987 36.7854 304.085 37.1642C304.127 37.3775 304.234 37.5737 304.393 37.7281C304.554 37.8837 304.759 37.9894 304.983 38.0316C305.206 38.0737 305.438 38.0504 305.648 37.9645C305.855 37.8799 306.03 37.7385 306.153 37.5582C306.439 37.2178 306.617 36.8057 306.666 36.3709C306.74 35.7569 306.823 35.1345 306.906 34.5123C307.002 33.7952 307.097 33.0782 307.178 32.375L307.179 32.3728C307.257 31.6031 307.294 30.8302 307.292 30.0568C307.309 29.8124 307.245 29.5689 307.11 29.3609C306.975 29.1521 306.774 28.9897 306.537 28.8969C306.29 28.7892 306.013 28.7604 305.748 28.8148C305.485 28.8689 305.246 29.0021 305.068 29.1952C304.748 29.479 304.448 29.7828 304.169 30.1045L304.168 30.1067C303.864 30.47 303.562 30.8405 303.262 31.2086C303.08 31.4324 302.898 31.6556 302.717 31.8754Z" fill="#3A3B7B"/>
</g>
<rect x="356" y="0.399048" width="48" height="48" rx="8" fill="#F5F7FA"/>
<g clip-path="url(#clip4_1_1440)">
<path d="M394.438 12.0896C394.438 12.5556 394.82 12.9333 395.292 12.9333H396.146C396.618 12.9333 397 12.5556 397 12.0896C397 11.6236 396.618 11.2458 396.146 11.2458H395.292C394.82 11.2458 394.438 11.6236 394.438 12.0896Z" fill="#212326"/>
<path d="M369.667 38.2459H373.816L372.608 37.0526C372.288 36.7361 371.853 36.5584 371.4 36.5584H369.667C363.062 36.5584 357.708 31.2697 357.708 24.7458C357.708 18.222 363.062 12.9334 369.667 12.9333H383.333C389.938 12.9333 395.292 18.222 395.292 24.7458C395.292 31.2697 389.938 36.5584 383.333 36.5584H378.221C377.541 36.5584 376.889 36.2917 376.409 35.817L374.994 34.419C374.193 33.6278 373.106 33.1833 371.974 33.1833H369.667C364.949 33.1833 361.125 29.4058 361.125 24.7458C361.125 20.0859 364.949 16.3083 369.667 16.3083H383.333C388.051 16.3083 391.875 20.0859 391.875 24.7458C391.875 29.4058 388.051 33.1833 383.333 33.1833H380.051C379.371 33.1833 378.719 32.9167 378.239 32.442L376.823 31.044C376.022 30.2528 374.936 29.8083 373.803 29.8083H369.667C366.836 29.8083 364.542 27.5418 364.542 24.7458C364.542 21.9499 366.836 19.6833 369.667 19.6833H383.333C386.164 19.6833 388.458 21.9499 388.458 24.7458C388.458 27.5077 386.219 29.753 383.437 29.8073L383.436 29.8083H382.186C381.506 29.8083 380.855 29.5417 380.374 29.067L378.959 27.669C378.302 27.0198 377.452 26.6041 376.543 26.4757L376.5 26.4333H369.667C368.723 26.4333 367.958 25.6778 367.958 24.7458C367.958 23.8139 368.723 23.0583 369.667 23.0583H383.333C384.277 23.0583 385.042 23.8139 385.042 24.7458C385.042 25.6778 384.277 26.4333 383.333 26.4333H379.917L381.125 27.6266C381.445 27.9431 381.88 28.1208 382.333 28.1208H383.333C385.22 28.1208 386.75 26.6098 386.75 24.7458C386.75 22.8819 385.22 21.3708 383.333 21.3708H369.667C367.78 21.3708 366.25 22.8819 366.25 24.7458C366.25 26.6098 367.78 28.1208 369.667 28.1208H375.939C376.619 28.1208 377.27 28.3875 377.751 28.8622L379.166 30.2602C379.967 31.0514 381.053 31.4958 382.186 31.4958H383.76V31.4829C387.335 31.2651 390.167 28.3321 390.167 24.7458C390.167 21.018 387.107 17.9958 383.333 17.9958H369.667C365.893 17.9958 362.833 21.018 362.833 24.7458C362.833 28.4738 365.893 31.4958 369.667 31.4958H373.803C374.483 31.4958 375.135 31.7625 375.615 32.2372L377.031 33.6352C377.832 34.4264 378.918 34.8709 380.051 34.8709H383.333C388.994 34.8709 393.583 30.3378 393.583 24.7458C393.583 19.1539 388.994 14.6208 383.333 14.6208H369.667C364.006 14.6208 359.417 19.1539 359.417 24.7458C359.417 30.3378 364.006 34.8709 369.667 34.8709H371.974C372.653 34.8709 373.305 35.1375 373.786 35.6122L375.201 37.0102C376.002 37.8014 377.088 38.2459 378.221 38.2459H383.333C390.881 38.2459 397 32.2017 397 24.7458C397 17.29 390.881 11.2458 383.333 11.2458L369.667 11.2459C362.119 11.2459 356 17.29 356 24.7458C356 32.2017 362.119 38.2459 369.667 38.2459Z" fill="#212326"/>
</g>
<rect x="445" y="0.399048" width="48" height="48" rx="8" fill="#F5F7FA"/>
<g clip-path="url(#clip5_1_1440)">
<path d="M457.343 14.2458C455.312 14.2458 453.365 15.0525 451.929 16.4885L447.243 21.1748C445.807 22.6107 445 24.5582 445 26.589C445 30.8178 448.428 34.2459 452.657 34.2459C454.688 34.2459 456.635 33.4391 458.071 32.0032L461.313 28.7617C461.313 28.7617 461.313 28.7616 461.313 28.7617L470.757 19.3169C471.443 18.6311 472.373 18.2458 473.343 18.2458C474.967 18.2458 476.343 19.3041 476.821 20.7686L479.801 17.7878C478.442 15.6581 476.057 14.2458 473.343 14.2458C471.312 14.2458 469.365 15.0525 467.929 16.4885L455.243 29.1748C454.557 29.8606 453.627 30.2459 452.657 30.2459C450.637 30.2459 449 28.6086 449 26.589C449 25.6191 449.385 24.689 450.071 24.0032L454.757 19.3169C455.443 18.6311 456.373 18.2458 457.343 18.2458C458.967 18.2458 460.343 19.3042 460.821 20.7687L463.802 17.7879C462.442 15.6581 460.057 14.2458 457.343 14.2458Z" fill="#394149"/>
<path d="M471.243 29.1748C470.557 29.8606 469.627 30.2459 468.657 30.2459C467.033 30.2459 465.657 29.1878 465.179 27.7236L462.199 30.7043C463.559 32.8338 465.943 34.2459 468.657 34.2459C470.688 34.2459 472.635 33.4391 474.071 32.0032L486.757 19.3169C487.443 18.6311 488.373 18.2458 489.343 18.2458C491.363 18.2458 493 19.8831 493 21.9027C493 22.8726 492.615 23.8027 491.929 24.4885L487.243 29.1748C486.557 29.8606 485.627 30.2459 484.657 30.2459C483.033 30.2459 481.657 29.1877 481.179 27.7233L478.199 30.704C479.558 32.8337 481.943 34.2459 484.657 34.2459C486.688 34.2459 488.635 33.4391 490.071 32.0032L494.757 27.3169C496.193 25.881 497 23.9334 497 21.9027C497 17.6739 493.572 14.2458 489.343 14.2458C487.312 14.2458 485.365 15.0525 483.929 16.4885L471.243 29.1748Z" fill="#394149"/>
</g>
<defs>
<clipPath id="clip0_1_1440">
<rect width="40" height="40" fill="white" transform="translate(0.353333 0.593567)"/>
</clipPath>
<clipPath id="clip1_1_1440">
<rect width="40" height="28" fill="white" transform="translate(89.1123 10.2458)"/>
</clipPath>
<clipPath id="clip2_1_1440">
<rect width="55" height="30" fill="white" transform="translate(178 9.24585)"/>
</clipPath>
<clipPath id="clip3_1_1440">
<rect width="47" height="29" fill="white" transform="translate(267 10.2458)"/>
</clipPath>
<clipPath id="clip4_1_1440">
<rect width="41" height="27" fill="white" transform="translate(356 11.2458)"/>
</clipPath>
<clipPath id="clip5_1_1440">
<rect width="52" height="20" fill="white" transform="translate(445 14.2458)"/>
</clipPath>
</defs>
</svg>
