<svg width="48" height="48" viewBox="0 0 48 48" fill="none" xmlns="http://www.w3.org/2000/svg">
<path d="M31.7822 12.25C31.0507 12.2486 30.3225 12.3498 29.6191 12.5504L29.6191 12.5504L29.6133 12.5521C29.3909 12.6185 29.1575 12.6399 28.9267 12.6152C28.6959 12.5905 28.4724 12.5201 28.269 12.4081C28.0657 12.2962 27.8867 12.1449 27.7424 11.9631C27.5981 11.7813 27.4914 11.5726 27.4285 11.3492C27.3657 11.1257 27.3479 10.892 27.3762 10.6616C27.4045 10.4313 27.4784 10.2088 27.5935 10.0073C27.7086 9.80571 27.8626 9.62907 28.0467 9.48762C28.2307 9.34618 28.441 9.24275 28.6654 9.18337L28.6654 9.18346L28.6744 9.1809C29.6846 8.8933 30.7301 8.74827 31.7804 8.75002L31.7827 8.75001C34.1429 8.74316 36.4479 9.46386 38.3838 10.814C40.3197 12.1641 41.7925 14.0781 42.6016 16.2953C43.4107 18.5125 43.5168 20.9252 42.9055 23.2049C42.2942 25.4845 40.9952 27.5204 39.1853 29.0353L38.575 29.5462L39.3001 29.8743C42.2734 31.2198 44.832 33.3373 46.7098 36.0065L46.712 36.0096C46.8454 36.1962 46.9405 36.4075 46.9915 36.6312C47.0426 36.8549 47.0486 37.0865 47.0094 37.3126C46.9701 37.5387 46.8863 37.7547 46.7628 37.9481C46.6394 38.1415 46.4787 38.3084 46.2901 38.4391L46.575 38.85L46.2843 38.4432C45.9923 38.6519 45.6423 38.7636 45.2835 38.7625C45.0029 38.7608 44.7267 38.6923 44.4778 38.5628C44.2287 38.4332 44.0141 38.2461 43.8516 38.0171M31.7822 12.25L31.7812 12.75V12.25C31.7816 12.25 31.7819 12.25 31.7822 12.25ZM31.7822 12.25C33.9036 12.2503 35.938 13.0931 37.4381 14.5932C38.9384 16.0934 39.7812 18.1283 39.7812 20.25C39.7812 22.3717 38.9384 24.4066 37.4381 25.9069C35.9378 27.4072 33.903 28.25 31.7812 28.25C31.3171 28.25 30.872 28.4344 30.5438 28.7626C30.2156 29.0908 30.0312 29.5359 30.0312 30C30.0312 30.4641 30.2156 30.9093 30.5438 31.2374C30.872 31.5656 31.3171 31.75 31.7812 31.75H31.7818C34.1486 31.7526 36.4801 32.3232 38.5805 33.414C40.6806 34.5045 42.4882 36.0831 43.8516 38.0171M43.8516 38.0171C43.8516 38.0171 43.8516 38.017 43.8516 38.017L43.4441 38.306L43.8524 38.0182C43.8522 38.0178 43.8519 38.0174 43.8516 38.0171ZM23.9031 29.0361L23.2958 29.5471L24.0189 29.8743C26.9922 31.2198 29.5507 33.3373 31.4286 36.0065L31.4357 36.0166L31.4434 36.0264C31.5892 36.2133 31.6956 36.4279 31.7561 36.6571C31.8165 36.8864 31.8297 37.1255 31.7949 37.36C31.7601 37.5945 31.678 37.8195 31.5537 38.0214C31.4293 38.2232 31.2652 38.3976 31.0713 38.5341C30.8775 38.6706 30.6579 38.7663 30.426 38.8153C30.194 38.8644 29.9545 38.8658 29.722 38.8195C29.4895 38.7732 29.2688 38.6801 29.0734 38.5459C28.8779 38.4118 28.7118 38.2393 28.585 38.0389L28.5786 38.0288L28.5717 38.019C27.211 36.0809 25.4036 34.4989 23.3025 33.4068C21.2013 32.3147 18.868 31.7446 16.5 31.7446C14.132 31.7446 11.7987 32.3147 9.69754 33.4068C7.59636 34.4989 5.78901 36.0809 4.42829 38.0189L4.42717 38.0205C4.26721 38.2503 4.05394 38.4378 3.80562 38.567C3.55731 38.6962 3.28136 38.7633 3.00144 38.7625L2.99837 38.7625C2.63936 38.7637 2.28907 38.652 1.997 38.4432L1.9946 38.4415C1.61602 38.1743 1.3589 37.7678 1.27961 37.3113C1.20033 36.8547 1.30536 36.3853 1.57168 36.0061C3.44949 33.3371 6.00797 31.2198 8.98114 29.8743L9.70422 29.5471L9.09687 29.0361C7.29184 27.5177 5.9974 25.4809 5.38905 23.2019C4.7807 20.9229 4.88786 18.5119 5.69601 16.2959C6.50416 14.0799 7.9742 12.166 9.90683 10.8136C11.8395 9.46127 14.1412 8.73593 16.5 8.73593C18.8588 8.73593 21.1605 9.46127 23.0932 10.8136C25.0258 12.166 26.4958 14.0799 27.304 16.2959C28.1121 18.5119 28.2193 20.9229 27.6109 23.2019C27.0026 25.4809 25.7082 27.5177 23.9031 29.0361ZM9.84824 15.8054C8.96919 17.121 8.5 18.6678 8.5 20.25C8.5 22.3717 9.34285 24.4066 10.8431 25.9069C12.3434 27.4072 14.3783 28.25 16.5 28.25C18.0822 28.25 19.629 27.7808 20.9446 26.9018C22.2602 26.0227 23.2855 24.7733 23.891 23.3115C24.4965 21.8497 24.655 20.2411 24.3463 18.6893C24.0376 17.1374 23.2757 15.712 22.1569 14.5932C21.038 13.4743 19.6126 12.7124 18.0607 12.4037C16.5089 12.095 14.9003 12.2535 13.4385 12.859C11.9767 13.4645 10.7273 14.4899 9.84824 15.8054Z" fill="#4CAF4F" stroke="#4CAF4F"/>
</svg>
