<svg width="48" height="48" viewBox="0 0 48 48" fill="none" xmlns="http://www.w3.org/2000/svg">
<path d="M28.9745 22.2292H29.0603H28.9745ZM28.9745 22.2292L28.9748 14.4548L26.9824 18.3936L26.9819 22.2291V22.2292C26.9819 22.2738 26.9841 22.318 26.9885 22.3616L26.982 22.3581V23.472V23.4748C26.982 23.4749 26.982 23.4749 26.982 23.475C26.9819 23.5534 26.9703 23.6294 26.9479 23.7011L26.8246 23.777C26.8717 23.6849 26.8966 23.582 26.8966 23.475V18.3936C26.8966 18.1858 27.0648 18.0174 27.2728 18.0174C27.4806 18.0174 27.6491 18.1856 27.6491 18.3936M28.9745 22.2292C28.9745 22.4068 28.906 22.5736 28.7806 22.699C28.6558 22.8236 28.4894 22.8926 28.3116 22.8926C27.9462 22.8926 27.6486 22.595 27.6486 22.2292L27.6491 18.3936M27.6491 18.3936H27.5632H27.6491ZM24.624 25.0998L24.624 25.0998L24.624 25.0998ZM24.624 25.0998L24.6241 25.0999L24.624 25.0998ZM26.2147 24.8902C26.2182 24.8618 26.2211 24.8334 26.2235 24.8048C26.2267 24.8049 26.2299 24.8049 26.2331 24.8049C26.2332 24.8049 26.2333 24.8049 26.2334 24.8049C26.5881 24.8049 26.9233 24.6653 27.1734 24.4161L27.1739 24.4157C27.1739 24.4157 27.1739 24.4156 27.1739 24.4156C27.174 24.4156 27.174 24.4156 27.174 24.4155L26.2147 24.8902ZM26.2147 24.8902C26.2208 24.8903 26.227 24.8903 26.2331 24.8903C26.6115 24.8903 26.967 24.7431 27.2342 24.4759C27.286 24.4243 27.3333 24.3693 27.3758 24.3114L26.2147 24.8902ZM24.9465 23.8125L24.8987 24.6303L24.8961 24.6742C24.8849 24.8658 24.8103 25.0334 24.6843 25.1596L24.9465 23.8125ZM24.9465 23.8125C24.9183 23.7048 24.9033 23.5918 24.9033 23.4752V23.4168V23.4168L24.9035 18.3939M24.9465 23.8125L25.4843 18.3939M24.9035 18.3939V18.3938L25.1939 18.3939L25.4843 18.3939M24.9035 18.3939C24.9035 18.5543 25.0338 18.6843 25.1939 18.6843C25.3543 18.6843 25.4843 18.554 25.4843 18.3939M24.9035 18.3939H25.1939H25.4843M25.4843 18.3939V23.4168V23.4752V23.9119V18.3939ZM25.0958 25.5708L25.0956 25.571L25.3659 25.3608C25.3403 25.3489 25.3151 25.3365 25.2902 25.3237C25.236 25.4125 25.171 25.4955 25.0958 25.5708ZM25.4821 24.7085C25.4781 24.7762 25.4691 24.8431 25.4552 24.9087L25.5617 24.7131L25.7815 24.726C25.7184 24.7032 25.6575 24.6757 25.5993 24.6441C25.5597 24.6225 25.5214 24.5991 25.4843 24.5738V24.6303C25.4843 24.6564 25.4836 24.6825 25.4821 24.7085Z" fill="#4CAF4F" stroke="#4CAF4F" stroke-width="1.33333"/>
<path d="M15.7379 30.1468L20.0953 27.5328C20.2475 27.4414 20.3551 27.2965 20.398 27.1252M15.7379 30.1468L15.7821 30.2203L15.881 30.3848L15.8811 30.3848L15.9318 30.4692L15.9321 30.4697L16.0814 30.7181M15.7379 30.1468C15.56 30.2537 15.5021 30.4849 15.609 30.663C15.7157 30.8413 15.9466 30.8993 16.1252 30.7918L21.9965 27.426C21.9963 27.4259 21.9961 27.4259 21.9959 27.4258C21.9958 27.4258 21.9958 27.4258 21.9958 27.4258C21.933 27.4102 21.8714 27.4028 21.8117 27.4028C21.7013 27.4028 21.585 27.431 21.4697 27.4912L21.43 27.5119L21.43 27.5119L20.7128 27.8863C20.6441 27.9575 20.5671 28.0213 20.4831 28.0764V28.1776L20.4826 28.1768L20.4824 28.1765L20.4389 28.1041C20.4388 28.1041 20.4387 28.1042 20.4385 28.1043L20.4383 28.1044L20.4382 28.1045L16.0814 30.7181M15.7379 30.1468L15.782 30.2203L15.9314 30.4694L15.9317 30.4699L15.9989 30.5818L15.9989 30.5819L16.0808 30.7185L16.081 30.7184L16.0811 30.7183L16.0814 30.7181M16.0814 30.7181C16.218 30.636 16.2633 30.4586 16.1811 30.3206C16.1811 30.3206 16.181 30.3206 16.181 30.3205C16.181 30.3205 16.181 30.3205 16.181 30.3204C16.1809 30.3203 16.1808 30.3202 16.1808 30.3201C16.1807 30.32 16.1806 30.3199 16.1806 30.3197C16.0978 30.1826 15.9194 30.1382 15.7823 30.2202L20.1393 27.6062L20.1394 27.6062L20.1394 27.6062L20.2977 27.5112H20.298L20.5162 27.3803L20.5056 27.1522L20.398 27.1252M20.398 27.1252L20.5056 27.1521L19.3758 26.4179C19.6898 26.2292 20.104 26.3037 20.2976 26.5838M20.398 27.1252C20.4451 26.9372 20.4093 26.745 20.2976 26.5838M20.2976 26.5838L20.2978 26.5837L20.2976 26.5838ZM9.36925 30.8275C9.37413 30.8205 9.37889 30.8137 9.3835 30.8071L9.50772 30.6008L9.51116 30.5951L9.55543 30.5216C9.758 30.1852 10.2841 29.2387 11.8257 26.4615M9.36925 30.8275L11.8257 26.4615M9.36925 30.8275C9.36934 30.8274 9.36944 30.8272 9.36954 30.8271L9.37091 30.828L9.36925 30.8275ZM9.36925 30.8275L9.29922 30.7784L9.36925 30.8275ZM11.8257 26.4615C11.7993 26.4516 11.7729 26.4402 11.7468 26.4271C11.7615 26.4007 11.7752 26.3761 11.7878 26.3532C11.8391 26.2609 11.8738 26.1984 11.8877 26.1733L11.9635 26.2132C11.9167 26.2976 11.8708 26.3803 11.8257 26.4615ZM9.37026 30.8291L9.36881 30.8281C9.36892 30.828 9.36902 30.8278 9.36912 30.8277L9.37026 30.8291ZM11.8946 26.1609L11.3115 25.8378L11.9713 26.1992L11.8946 26.1609ZM12.0748 25.9118C12.0996 25.9257 12.1242 25.9411 12.1483 25.9582L13.0125 25.504C12.6615 25.5038 12.3188 25.6486 12.0748 25.9118ZM17.9212 33.7852C17.9212 33.7852 17.9211 33.7853 17.921 33.7853L17.9212 33.7852Z" fill="#4CAF4F" stroke="#4CAF4F" stroke-width="1.33333"/>
<path d="M32.5259 30.2199C32.5259 30.2198 32.5258 30.2198 32.5258 30.2198L32.5259 30.2199Z" fill="#4CAF4F" stroke="#4CAF4F" stroke-width="1.33333"/>
</svg>
