<svg width="112" height="22" viewBox="0 0 112 22" fill="none" xmlns="http://www.w3.org/2000/svg">
<path d="M17.0327 0.669033V21.0327H13.3139L4.45455 8.21591H4.3054V21.0327H0V0.669033H3.77841L12.5682 13.4759H12.7472V0.669033H17.0327Z" fill="#263238"/>
<path d="M27.4705 21.331C25.8995 21.331 24.5472 21.0128 23.4137 20.3764C22.2868 19.7334 21.4184 18.8253 20.8086 17.652C20.1987 16.4721 19.8938 15.0767 19.8938 13.4659C19.8938 11.8949 20.1987 10.5161 20.8086 9.32955C21.4184 8.14299 22.2769 7.21828 23.3839 6.5554C24.4975 5.89252 25.8034 5.56108 27.3015 5.56108C28.3091 5.56108 29.247 5.72348 30.1154 6.0483C30.9904 6.36648 31.7527 6.84706 32.4023 7.49006C33.0586 8.13305 33.569 8.94176 33.9336 9.91619C34.2982 10.884 34.4805 12.0175 34.4805 13.3168V14.4801H21.5842V11.8551H30.4933C30.4933 11.2453 30.3607 10.705 30.0955 10.2344C29.8304 9.76373 29.4625 9.39583 28.9918 9.13068C28.5278 8.8589 27.9876 8.72301 27.3711 8.72301C26.7281 8.72301 26.158 8.87216 25.6609 9.17045C25.1703 9.46212 24.7859 9.85653 24.5075 10.3537C24.229 10.8442 24.0865 11.3911 24.0799 11.9943V14.4901C24.0799 15.2457 24.2191 15.8987 24.4975 16.4489C24.7826 16.9991 25.1836 17.4233 25.7006 17.7216C26.2177 18.0199 26.8308 18.169 27.5401 18.169C28.0108 18.169 28.4416 18.1027 28.8327 17.9702C29.2238 17.8376 29.5586 17.6387 29.837 17.3736C30.1154 17.1084 30.3275 16.7836 30.4734 16.3991L34.391 16.6577C34.1921 17.599 33.7844 18.4209 33.168 19.1236C32.5581 19.8196 31.7693 20.3632 30.8015 20.7543C29.8403 21.1387 28.73 21.331 27.4705 21.331Z" fill="#263238"/>
<path d="M40.511 5.75994L43.315 11.0994L46.1886 5.75994H50.5337L46.109 13.3963L50.6531 21.0327H46.3278L43.315 15.7528L40.3519 21.0327H35.9769L40.511 13.3963L36.136 5.75994H40.511Z" fill="#263238"/>
<path d="M59.4031 21.331C57.8387 21.331 56.493 20.9995 55.3661 20.3366C54.2459 19.6671 53.3841 18.7391 52.7809 17.5526C52.1843 16.366 51.886 15.0005 51.886 13.456C51.886 11.8916 52.1876 10.5194 52.7908 9.33949C53.4007 8.15293 54.2657 7.22822 55.386 6.56534C56.5063 5.89583 57.8387 5.56108 59.3832 5.56108C60.7156 5.56108 61.8822 5.80303 62.8832 6.28693C63.8841 6.77083 64.6762 7.45028 65.2596 8.32528C65.8429 9.20028 66.1644 10.2277 66.2241 11.4077H62.2269C62.1142 10.6454 61.8159 10.0322 61.332 9.56818C60.8548 9.09754 60.2283 8.86222 59.4528 8.86222C58.7965 8.86222 58.2231 9.04119 57.7326 9.39915C57.2487 9.75047 56.8709 10.2642 56.5991 10.9403C56.3273 11.6165 56.1914 12.4351 56.1914 13.3963C56.1914 14.3707 56.324 15.1993 56.5891 15.8821C56.8609 16.5649 57.2421 17.0852 57.7326 17.4432C58.2231 17.8011 58.7965 17.9801 59.4528 17.9801C59.9367 17.9801 60.3709 17.8807 60.7553 17.6818C61.1464 17.483 61.4679 17.1946 61.7198 16.8168C61.9783 16.4323 62.1474 15.9716 62.2269 15.4347H66.2241C66.1578 16.6013 65.8396 17.6288 65.2695 18.517C64.7061 19.3987 63.9272 20.0881 62.9329 20.5852C61.9386 21.0824 60.762 21.331 59.4031 21.331Z" fill="#263238"/>
<path d="M75.8963 21.331C74.3253 21.331 72.973 21.0128 71.8395 20.3764C70.7126 19.7334 69.8442 18.8253 69.2344 17.652C68.6245 16.4721 68.3196 15.0767 68.3196 13.4659C68.3196 11.8949 68.6245 10.5161 69.2344 9.32955C69.8442 8.14299 70.7026 7.21828 71.8097 6.5554C72.9233 5.89252 74.2292 5.56108 75.7273 5.56108C76.7348 5.56108 77.6728 5.72348 78.5412 6.0483C79.4162 6.36648 80.1785 6.84706 80.8281 7.49006C81.4844 8.13305 81.9948 8.94176 82.3594 9.91619C82.724 10.884 82.9062 12.0175 82.9062 13.3168V14.4801H70.0099V11.8551H78.919C78.919 11.2453 78.7865 10.705 78.5213 10.2344C78.2562 9.76373 77.8883 9.39583 77.4176 9.13068C76.9536 8.8589 76.4134 8.72301 75.7969 8.72301C75.1539 8.72301 74.5838 8.87216 74.0866 9.17045C73.5961 9.46212 73.2116 9.85653 72.9332 10.3537C72.6548 10.8442 72.5123 11.3911 72.5057 11.9943V14.4901C72.5057 15.2457 72.6449 15.8987 72.9233 16.4489C73.2083 16.9991 73.6094 17.4233 74.1264 17.7216C74.6435 18.0199 75.2566 18.169 75.9659 18.169C76.4365 18.169 76.8674 18.1027 77.2585 17.9702C77.6496 17.8376 77.9844 17.6387 78.2628 17.3736C78.5412 17.1084 78.7533 16.7836 78.8991 16.3991L82.8168 16.6577C82.6179 17.599 82.2102 18.4209 81.5938 19.1236C80.9839 19.8196 80.1951 20.3632 79.2273 20.7543C78.2661 21.1387 77.1558 21.331 75.8963 21.331Z" fill="#263238"/>
<path d="M89.9062 12.2031V21.0327H85.6704V5.75994H89.7074V8.45455H89.8864C90.2244 7.56629 90.7912 6.86363 91.5866 6.34659C92.3821 5.82292 93.3466 5.56108 94.4801 5.56108C95.5407 5.56108 96.4654 5.79309 97.2543 6.2571C98.0431 6.72112 98.6562 7.384 99.0938 8.24574C99.5312 9.10085 99.75 10.1217 99.75 11.3082V21.0327H95.5142V12.0639C95.5208 11.1293 95.2822 10.4001 94.7983 9.87642C94.3144 9.34612 93.6482 9.08097 92.7997 9.08097C92.2296 9.08097 91.7258 9.2036 91.2883 9.44886C90.8575 9.69413 90.5194 10.0521 90.2741 10.5227C90.0355 10.9867 89.9129 11.5469 89.9062 12.2031Z" fill="#263238"/>
<path d="M111.212 5.75994V8.94176H102.015V5.75994H111.212ZM104.103 2.10085H108.338V16.3395C108.338 16.7306 108.398 17.0355 108.517 17.2543C108.637 17.4664 108.802 17.6155 109.015 17.7017C109.233 17.7879 109.485 17.831 109.77 17.831C109.969 17.831 110.168 17.8144 110.367 17.7812C110.566 17.7415 110.718 17.7116 110.824 17.6918L111.49 20.8438C111.278 20.91 110.98 20.9863 110.596 21.0724C110.211 21.1652 109.744 21.2216 109.194 21.2415C108.173 21.2813 107.278 21.1454 106.509 20.8338C105.747 20.5223 105.153 20.0384 104.729 19.3821C104.305 18.7259 104.096 17.8973 104.103 16.8963V2.10085Z" fill="#263238"/>
</svg>
