<svg width="138" height="26" viewBox="0 0 138 26" fill="none" xmlns="http://www.w3.org/2000/svg">
<path d="M21.2197 0.0634766V25.2395H16.6222L5.66912 9.39385H5.48473V25.2395H0.161865V0.0634766H4.8332L15.7002 15.8968H15.9215V0.0634766H21.2197Z" fill="white"/>
<path d="M34.1243 25.6083C32.182 25.6083 30.5102 25.2149 29.1088 24.4282C27.7156 23.6332 26.642 22.5105 25.888 21.0599C25.134 19.6011 24.757 17.876 24.757 15.8845C24.757 13.9423 25.134 12.2376 25.888 10.7707C26.642 9.3037 27.7033 8.16045 29.0719 7.34092C30.4487 6.52139 32.0632 6.11162 33.9153 6.11162C35.161 6.11162 36.3206 6.31241 37.3942 6.71398C38.476 7.10735 39.4185 7.70152 40.2216 8.49646C41.033 9.29141 41.664 10.2912 42.1147 11.4959C42.5655 12.6925 42.7908 14.0939 42.7908 15.7001V17.1384H26.8469V13.8931H37.8614C37.8614 13.1391 37.6975 12.4712 37.3696 11.8893C37.0418 11.3075 36.587 10.8526 36.0051 10.5248C35.4315 10.1888 34.7635 10.0208 34.0014 10.0208C33.2064 10.0208 32.5016 10.2052 31.887 10.574C31.2805 10.9346 30.8052 11.4222 30.461 12.0368C30.1168 12.6433 29.9406 13.3194 29.9324 14.0652V17.1507C29.9324 18.085 30.1045 18.8922 30.4487 19.5724C30.8011 20.2526 31.2969 20.7772 31.9361 21.1459C32.5754 21.5147 33.3335 21.6991 34.2103 21.6991C34.7922 21.6991 35.3249 21.6172 35.8084 21.4533C36.292 21.2894 36.7058 21.0435 37.05 20.7157C37.3942 20.3879 37.6565 19.9863 37.8368 19.511L42.6802 19.8306C42.4344 20.9943 41.9303 22.0105 41.1682 22.8793C40.4142 23.7398 39.439 24.4118 38.2424 24.8953C37.0541 25.3706 35.6814 25.6083 34.1243 25.6083Z" fill="white"/>
<path d="M50.2465 6.35748L53.7132 12.9588L57.2658 6.35748H62.6379L57.1675 15.7985L62.7854 25.2395H57.4379L53.7132 18.7119L50.0499 25.2395H44.6409L50.2465 15.7985L44.8376 6.35748H50.2465Z" fill="white"/>
<path d="M73.6032 25.6083C71.6691 25.6083 70.0055 25.1985 68.6123 24.379C67.2272 23.5513 66.1619 22.4039 65.4161 20.937C64.6785 19.47 64.3097 17.7818 64.3097 15.8723C64.3097 13.9382 64.6826 12.2417 65.4284 10.783C66.1823 9.31599 67.2518 8.17275 68.6368 7.35321C70.0219 6.52549 71.6691 6.11162 73.5786 6.11162C75.2259 6.11162 76.6683 6.41075 77.9057 7.00901C79.1432 7.60727 80.1226 8.44729 80.8438 9.52907C81.565 10.6109 81.9624 11.8811 82.0362 13.3399H77.0944C76.9551 12.3974 76.5863 11.6394 75.988 11.0657C75.398 10.4838 74.6235 10.1929 73.6647 10.1929C72.8533 10.1929 72.1444 10.4142 71.538 10.8567C70.9397 11.2911 70.4726 11.9262 70.1366 12.7621C69.8006 13.598 69.6326 14.6102 69.6326 15.7985C69.6326 17.0032 69.7965 18.0276 70.1243 18.8717C70.4603 19.7159 70.9315 20.3592 71.538 20.8017C72.1444 21.2443 72.8533 21.4656 73.6647 21.4656C74.2629 21.4656 74.7997 21.3426 75.2751 21.0968C75.7586 20.8509 76.156 20.4944 76.4675 20.0273C76.7871 19.5519 76.9961 18.9824 77.0944 18.3186H82.0362C81.9542 19.7609 81.5609 21.0312 80.8561 22.1294C80.1595 23.2194 79.1965 24.0717 77.9672 24.6863C76.7379 25.301 75.2832 25.6083 73.6032 25.6083Z" fill="white"/>
<path d="M93.9942 25.6083C92.0519 25.6083 90.38 25.2149 88.9786 24.4282C87.5854 23.6332 86.5119 22.5105 85.7579 21.0599C85.0039 19.6011 84.6269 17.876 84.6269 15.8845C84.6269 13.9423 85.0039 12.2376 85.7579 10.7707C86.5119 9.3037 87.5731 8.16045 88.9418 7.34092C90.3186 6.52139 91.9331 6.11162 93.7852 6.11162C95.0309 6.11162 96.1905 6.31241 97.2641 6.71398C98.3459 7.10735 99.2884 7.70152 100.092 8.49646C100.903 9.29141 101.534 10.2912 101.985 11.4959C102.435 12.6925 102.661 14.0939 102.661 15.7001V17.1384H86.7167V13.8931H97.7312C97.7312 13.1391 97.5673 12.4712 97.2395 11.8893C96.9117 11.3075 96.4569 10.8526 95.875 10.5248C95.3013 10.1888 94.6334 10.0208 93.8713 10.0208C93.0763 10.0208 92.3715 10.2052 91.7569 10.574C91.1504 10.9346 90.6751 11.4222 90.3309 12.0368C89.9867 12.6433 89.8105 13.3194 89.8023 14.0652V17.1507C89.8023 18.085 89.9744 18.8922 90.3186 19.5724C90.671 20.2526 91.1668 20.7772 91.806 21.1459C92.4453 21.5147 93.2033 21.6991 94.0802 21.6991C94.6621 21.6991 95.1948 21.6172 95.6783 21.4533C96.1618 21.2894 96.5757 21.0435 96.9199 20.7157C97.2641 20.3879 97.5264 19.9863 97.7067 19.511L102.55 19.8306C102.304 20.9943 101.8 22.0105 101.038 22.8793C100.284 23.7398 99.3089 24.4118 98.1123 24.8953C96.924 25.3706 95.5513 25.6083 93.9942 25.6083Z" fill="white"/>
<path d="M111.315 14.3233V25.2395H106.078V6.35748H111.069V9.68888H111.29C111.708 8.59071 112.409 7.722 113.393 7.08277C114.376 6.43534 115.568 6.11162 116.97 6.11162C118.281 6.11162 119.424 6.39846 120.4 6.97213C121.375 7.5458 122.133 8.36534 122.674 9.43073C123.215 10.4879 123.485 11.75 123.485 13.217V25.2395H118.248V14.1512C118.256 12.9957 117.961 12.0942 117.363 11.4468C116.765 10.7912 115.941 10.4633 114.892 10.4633C114.187 10.4633 113.565 10.615 113.024 10.9182C112.491 11.2214 112.073 11.664 111.77 12.2458C111.475 12.8195 111.323 13.512 111.315 14.3233Z" fill="white"/>
<path d="M137.656 6.35748V10.2912H126.285V6.35748H137.656ZM128.866 1.83367H134.103V19.4372C134.103 19.9207 134.177 20.2977 134.324 20.5682C134.472 20.8304 134.677 21.0148 134.939 21.1214C135.209 21.2279 135.521 21.2812 135.873 21.2812C136.119 21.2812 136.365 21.2607 136.611 21.2197C136.857 21.1705 137.045 21.1336 137.176 21.1091L138 25.0059C137.738 25.0879 137.369 25.1821 136.894 25.2887C136.418 25.4034 135.841 25.4731 135.16 25.4977C133.898 25.5468 132.792 25.3788 131.841 24.9936C130.899 24.6085 130.165 24.0102 129.641 23.1989C129.116 22.3875 128.858 21.3631 128.866 20.1256V1.83367Z" fill="white"/>
</svg>
