<svg width="6" height="5" viewBox="0 0 6 5" fill="none" xmlns="http://www.w3.org/2000/svg">
<path d="M5.23344 2.73377C5.20523 3.14796 5.05653 3.54486 4.80566 3.87564C4.55478 4.20642 4.21267 4.45666 3.82143 4.59552C3.43018 4.73438 3.00688 4.75583 2.60361 4.65722C2.20033 4.55861 1.83468 4.34423 1.55166 4.0405C1.26864 3.73677 1.08058 3.35693 1.01064 2.94771C0.940713 2.53849 0.991969 2.11775 1.15807 1.73727C1.32416 1.35679 1.59787 1.03315 1.94551 0.806221C2.29315 0.579289 2.69954 0.458943 3.11469 0.459998C3.69683 0.48155 4.24669 0.732974 4.64382 1.15916C5.04095 1.58535 5.25299 2.15156 5.23344 2.73377Z" fill="#4CAF4F"/>
</svg>
