<svg width="108" height="19" viewBox="0 0 108 19" fill="none" xmlns="http://www.w3.org/2000/svg">
<path d="M104.785 18.607C104.994 18.5813 105.201 18.5434 105.405 18.4933C105.694 18.4014 105.96 18.2487 106.184 18.0455C106.409 17.8422 106.587 17.5931 106.708 17.3151C106.87 16.8978 106.934 16.4485 106.894 16.0025C106.894 15.5064 106.894 14.969 106.894 14.3695C106.894 13.1706 106.894 11.8064 106.894 10.2354V3.67252C106.943 3.19738 106.838 2.71897 106.594 2.30826C106.339 1.88705 105.938 1.57436 105.467 1.42977C104.953 1.33791 104.428 1.31014 103.907 1.34709H89.0343L2.88983 1.0267C2.42647 1.02779 1.97928 1.1971 1.63139 1.50317C1.2835 1.80923 1.05859 2.23123 0.998476 2.69067C0.998476 3.67252 0.998476 4.75773 0.998476 5.79125C0.998476 7.85831 0.998476 9.92536 0.998476 11.9924C0.998476 13.0259 0.998476 14.0595 0.998476 15.093C0.959975 15.576 0.980798 16.062 1.06048 16.5399C1.18953 16.959 1.45512 17.3228 1.81495 17.5734C2.19673 17.8157 2.64519 17.9315 3.09653 17.9042H4.53313H7.52003L30.392 18.0179L69.1182 18.2556L95.2251 18.4623L102.325 18.545H95.2251H69.1182L30.3713 18.5036L7.49935 18.4209H3.00352C2.4445 18.4541 1.88977 18.3054 1.42223 17.9972C0.951943 17.6714 0.608723 17.1931 0.450708 16.6433C0.358075 16.1181 0.330304 15.5836 0.368024 15.0516C0.368024 14.0181 0.368024 12.9846 0.368024 11.9511C0.368024 9.88401 0.368024 7.81696 0.368024 5.7499C0.368024 4.71638 0.368024 3.68285 0.368024 2.64932C0.443438 2.05835 0.731652 1.51512 1.17872 1.12132C1.62578 0.727523 2.20105 0.510169 2.79682 0.509933L88.9413 0.985347L103.814 1.09904C104.368 1.06506 104.923 1.10328 105.467 1.21272C106.004 1.38818 106.457 1.75639 106.739 2.24625C107.006 2.70147 107.122 3.22988 107.069 3.75521C107.069 4.24096 107.069 4.71638 107.069 5.19181C107.069 7.06249 107.069 8.77814 107.069 10.3594C107.069 11.9407 107.069 13.274 107.069 14.4935C107.069 15.0827 107.069 15.6304 107.069 16.1368C107.107 16.599 107.032 17.0635 106.852 17.4908C106.718 17.7759 106.524 18.0288 106.283 18.2322C106.042 18.4355 105.761 18.5845 105.457 18.669C105.231 18.6876 105.004 18.6667 104.785 18.607Z" fill="#E0E0E0"/>
</svg>
