<svg width="5" height="5" viewBox="0 0 5 5" fill="none" xmlns="http://www.w3.org/2000/svg">
<path d="M4.47239 2.65109C4.44189 3.06682 4.29003 3.46444 4.03563 3.79466C3.78123 4.12488 3.43549 4.37314 3.04129 4.50868C2.64709 4.64421 2.22177 4.66105 1.81809 4.55709C1.41441 4.45314 1.05013 4.23299 0.770421 3.92391C0.490715 3.61484 0.307901 3.23043 0.244637 2.81841C0.181372 2.40639 0.240439 1.98487 0.414531 1.60611C0.588623 1.22736 0.870082 0.908048 1.22398 0.687772C1.57787 0.467496 1.98863 0.355947 2.40533 0.366971C2.98017 0.401672 3.51852 0.660245 3.90494 1.08724C4.29135 1.51422 4.49506 2.07565 4.47239 2.65109Z" fill="#4CAF4F"/>
</svg>
