<svg width="107" height="20" viewBox="0 0 107 20" fill="none" xmlns="http://www.w3.org/2000/svg">
<path d="M104.578 19.0226C104.787 18.998 104.995 18.96 105.199 18.909C105.486 18.8176 105.751 18.6663 105.975 18.4649C106.2 18.2636 106.379 18.0169 106.501 17.7411C106.663 17.3236 106.727 16.8745 106.687 16.4285C106.687 15.9221 106.687 15.395 106.687 14.7852C106.687 13.5966 106.687 12.2221 106.687 10.6511V4.0882C106.736 3.61305 106.631 3.13465 106.387 2.72393C106.126 2.3104 105.727 2.0028 105.261 1.85578C104.746 1.76025 104.222 1.729 103.7 1.76276H88.8276L2.68314 1.44237C2.21978 1.44347 1.77257 1.61279 1.42468 1.91886C1.07679 2.22492 0.851895 2.64689 0.791784 3.10633C0.791784 4.13986 0.791784 5.17339 0.791784 6.20691C0.791784 8.27397 0.791784 10.341 0.791784 12.4081C0.791784 13.4416 0.791784 14.4751 0.791784 15.5087C0.753297 15.9882 0.774122 16.4708 0.853793 16.9453C0.977566 17.367 1.24433 17.7324 1.60826 17.9788C1.98766 18.2265 2.43795 18.3427 2.88984 18.3095H7.38567L30.2576 18.4336L68.9838 18.6712L95.0907 18.878L102.191 18.9606H95.0907H68.9838L30.2576 18.847L7.38567 18.7539H2.88984C2.33036 18.7917 1.77419 18.6426 1.30855 18.3302C0.838265 18.0044 0.495045 17.5261 0.33703 16.9763C0.244397 16.4511 0.216626 15.9166 0.254346 15.3846C0.254346 14.3511 0.254346 13.3176 0.254346 12.2841C0.254346 10.217 0.254346 8.14995 0.254346 6.0829C0.254346 5.04937 0.254346 4.01585 0.254346 2.93065C0.327413 2.34055 0.613524 1.79746 1.05889 1.40348C1.50425 1.00951 2.07818 0.791777 2.67279 0.791245L88.8172 1.26666L103.69 1.38036C104.243 1.34639 104.799 1.38459 105.343 1.49403C105.88 1.66949 106.333 2.0377 106.615 2.52756C106.882 2.98278 106.998 3.51118 106.945 4.0365C106.945 4.52226 106.945 5.00803 106.945 5.47312C106.945 7.3438 106.945 9.05946 106.945 10.6408C106.945 12.222 106.945 13.5553 106.945 14.7749C106.945 15.364 106.945 15.9117 106.945 16.4182C106.985 16.8804 106.91 17.3454 106.728 17.7721C106.594 18.0573 106.4 18.3101 106.159 18.5135C105.918 18.7168 105.637 18.8658 105.333 18.9503C105.091 19.0333 104.832 19.058 104.578 19.0226Z" fill="#E0E0E0"/>
</svg>
