<svg width="15" height="16" viewBox="0 0 15 16" fill="none" xmlns="http://www.w3.org/2000/svg">
<path d="M8.6307 8.62691C9.34866 8.31074 9.95778 7.79042 10.3823 7.1307C10.8068 6.47098 11.0279 5.70099 11.0181 4.91655C11.0449 4.40662 10.9675 3.89657 10.7908 3.41749C10.6141 2.93841 10.3417 2.50032 9.99023 2.1299C9.63874 1.75949 9.21552 1.46451 8.74636 1.26294C8.27719 1.06136 7.7719 0.957401 7.26126 0.957401C6.75062 0.957401 6.24533 1.06136 5.77617 1.26294C5.307 1.46451 4.88378 1.75949 4.53229 2.1299C4.18081 2.50032 3.90841 2.93841 3.7317 3.41749C3.55498 3.89657 3.47766 4.40662 3.50441 4.91655C3.48867 5.70884 3.708 6.48804 4.13476 7.15576C4.56151 7.82348 5.17653 8.3498 5.90217 8.66826C0.114423 9.53642 0.37283 15.8203 0.37283 15.8203L14.0567 15.8823C14.0567 15.8823 14.3771 9.48473 8.6307 8.62691Z" fill="#4CAF4F"/>
</svg>
