<svg width="5" height="5" viewBox="0 0 5 5" fill="none" xmlns="http://www.w3.org/2000/svg">
<path d="M4.2949 2.58908C4.2644 3.00481 4.11254 3.40243 3.85814 3.73265C3.60374 4.06286 3.258 4.31113 2.8638 4.44667C2.4696 4.5822 2.04428 4.59903 1.6406 4.49508C1.23692 4.39113 0.872636 4.17098 0.59293 3.8619C0.313224 3.55283 0.130411 3.16842 0.0671465 2.7564C0.00388199 2.34438 0.062949 1.92285 0.237041 1.5441C0.411132 1.16535 0.692591 0.846036 1.04649 0.62576C1.40038 0.405484 1.81114 0.293935 2.22784 0.304959C2.80364 0.337044 3.34358 0.594858 3.73054 1.02245C4.1175 1.45004 4.32027 2.01295 4.2949 2.58908Z" fill="#4CAF4F"/>
</svg>
