<svg width="108" height="20" viewBox="0 0 108 20" fill="none" xmlns="http://www.w3.org/2000/svg">
<path d="M105.457 19.1033C105.666 19.0822 105.871 19.0336 106.067 18.9586C106.353 18.8468 106.602 18.6566 106.784 18.4098C106.967 18.163 107.077 17.8696 107.1 17.5634C107.1 15.9201 107.1 13.5223 107.1 10.4424C107.1 8.90242 107.1 7.17644 107.1 5.27475C107.1 4.80966 107.1 4.3239 107.1 3.83815C107.168 3.36679 107.065 2.88686 106.811 2.48423C106.669 2.29118 106.484 2.13376 106.27 2.02436C106.057 1.91497 105.821 1.85658 105.581 1.85378H103.969H89.0343L2.59009 1.53339C2.36883 1.52963 2.14994 1.57933 1.95201 1.6783C1.75408 1.77727 1.58297 1.92256 1.45323 2.10183C1.20364 2.50609 1.10822 2.98681 1.1845 3.45575C1.1845 4.48927 1.1845 5.5228 1.1845 6.55633C1.1845 8.62338 1.1845 10.6904 1.1845 12.7575C1.1845 13.791 1.1845 14.8245 1.1845 15.8581C1.14162 16.3394 1.14162 16.8236 1.1845 17.305C1.23879 17.5114 1.33971 17.7025 1.47947 17.8638C1.61922 18.025 1.79409 18.1521 1.99065 18.2352C2.19429 18.3162 2.41234 18.3549 2.63144 18.3489H7.89209L30.8467 18.4729L69.7073 18.7106L95.9072 18.9173L103.028 19H104.878C105.302 19 105.509 19 105.509 19H104.878H103.028H95.9072H69.7073L30.8467 18.876L7.89209 18.7829H2.63144C2.34193 18.7946 2.05318 18.7453 1.78395 18.6383C1.51181 18.5221 1.26979 18.3453 1.07635 18.1215C0.882902 17.8976 0.743142 17.6325 0.667735 17.3463C0.607907 17.0751 0.587029 16.7967 0.605726 16.5195V15.7547C0.605726 14.7212 0.605726 13.6877 0.605726 12.6541C0.605726 10.5871 0.605726 8.52002 0.605726 6.45297C0.605726 5.41944 0.605726 4.38591 0.605726 3.35239C0.586015 3.07713 0.586015 2.80082 0.605726 2.52556C0.644454 2.22154 0.762035 1.93294 0.946792 1.68841C1.12508 1.43893 1.36106 1.23627 1.6346 1.0977C1.90814 0.959128 2.21114 0.888772 2.51776 0.892605L88.9619 1.36802L103.896 1.47138H105.509C105.793 1.4716 106.073 1.54028 106.324 1.67161C106.576 1.80295 106.793 1.99306 106.956 2.22585C107.247 2.67519 107.365 3.21533 107.286 3.74513C107.286 4.23089 107.286 4.71665 107.286 5.18173C107.286 7.06275 107.286 8.78874 107.286 10.3494C107.286 13.4499 107.214 15.827 107.193 17.4807C107.168 17.7986 107.052 18.1028 106.86 18.3573C106.668 18.6118 106.407 18.8061 106.108 18.9173C105.913 19.0385 105.687 19.1029 105.457 19.1033Z" fill="#E0E0E0"/>
</svg>
