<svg width="5" height="5" viewBox="0 0 5 5" fill="none" xmlns="http://www.w3.org/2000/svg">
<path d="M4.63951 2.70277C4.611 3.11912 4.46076 3.5179 4.20746 3.84956C3.95417 4.18122 3.60897 4.43113 3.21481 4.56822C2.82065 4.70531 2.39492 4.72353 1.99048 4.62064C1.58605 4.51774 1.22075 4.29827 0.940034 3.98948C0.659314 3.68068 0.475537 3.2962 0.411538 2.88382C0.347539 2.47143 0.40615 2.04935 0.580076 1.67C0.754001 1.29065 1.03558 0.970783 1.38981 0.75015C1.74403 0.529516 2.15529 0.417822 2.57246 0.429002C3.14543 0.463691 3.68221 0.72083 4.06834 1.14558C4.45447 1.57032 4.65942 2.12909 4.63951 2.70277Z" fill="#4CAF4F"/>
</svg>
