<svg width="5" height="5" viewBox="0 0 5 5" fill="none" xmlns="http://www.w3.org/2000/svg">
<path d="M4.40053 2.79578C4.37232 3.20997 4.22362 3.6069 3.97275 3.93768C3.72187 4.26846 3.37976 4.51867 2.98852 4.65753C2.59727 4.79639 2.17397 4.81784 1.7707 4.71923C1.36742 4.62062 1.00177 4.40624 0.718752 4.10251C0.43573 3.79878 0.247697 3.41894 0.177765 3.00972C0.107834 2.6005 0.159058 2.17976 0.325155 1.79928C0.491252 1.4188 0.764958 1.09516 1.1126 0.868232C1.46024 0.6413 1.86666 0.520985 2.28182 0.522041C2.86395 0.543592 3.41381 0.794985 3.81094 1.22117C4.20807 1.64736 4.42008 2.21357 4.40053 2.79578Z" fill="#4CAF4F"/>
</svg>
