<svg width="5" height="6" viewBox="0 0 5 6" fill="none" xmlns="http://www.w3.org/2000/svg">
<path d="M4.81697 2.76478C4.83731 3.05615 4.79748 3.34859 4.69996 3.62391C4.60243 3.89923 4.4493 4.15155 4.25009 4.36515C4.05088 4.57876 3.80983 4.74909 3.54197 4.86555C3.27411 4.98201 2.98517 5.04208 2.69308 5.04208C2.401 5.04208 2.11203 4.98201 1.84416 4.86555C1.5763 4.74909 1.33529 4.57876 1.13608 4.36515C0.936862 4.15155 0.783735 3.89923 0.68621 3.62391C0.588685 3.34859 0.548856 3.05615 0.569194 2.76478C0.548856 2.4734 0.588685 2.18096 0.68621 1.90564C0.783735 1.63032 0.936862 1.378 1.13608 1.1644C1.33529 0.950797 1.5763 0.780497 1.84416 0.664038C2.11203 0.547578 2.401 0.487473 2.69308 0.487473C2.98517 0.487473 3.27411 0.547578 3.54197 0.664038C3.80983 0.780497 4.05088 0.950797 4.25009 1.1644C4.4493 1.378 4.60243 1.63032 4.69996 1.90564C4.79748 2.18096 4.83731 2.4734 4.81697 2.76478Z" fill="#4CAF4F"/>
</svg>
