<svg width="5" height="5" viewBox="0 0 5 5" fill="none" xmlns="http://www.w3.org/2000/svg">
<path d="M4.87848 2.62009C4.89882 2.91147 4.85897 3.20388 4.76145 3.4792C4.66392 3.75452 4.5108 4.00683 4.31158 4.22044C4.11237 4.43404 3.87134 4.60437 3.60348 4.72083C3.33562 4.83729 3.04666 4.8974 2.75458 4.8974C2.46249 4.8974 2.17353 4.83729 1.90567 4.72083C1.63781 4.60437 1.39678 4.43404 1.19757 4.22044C0.998355 4.00683 0.845228 3.75452 0.747703 3.4792C0.650178 3.20388 0.610349 2.91147 0.630687 2.62009C0.610349 2.32872 0.650178 2.03627 0.747703 1.76096C0.845228 1.48564 0.998355 1.23332 1.19757 1.01972C1.39678 0.806114 1.63781 0.635782 1.90567 0.519323C2.17353 0.402864 2.46249 0.342758 2.75458 0.342758C3.04666 0.342758 3.33562 0.402864 3.60348 0.519323C3.87134 0.635782 4.11237 0.806114 4.31158 1.01972C4.5108 1.23332 4.66392 1.48564 4.76145 1.76096C4.85897 2.03627 4.89882 2.32872 4.87848 2.62009Z" fill="#4CAF4F"/>
</svg>
