<svg width="6" height="5" viewBox="0 0 6 5" fill="none" xmlns="http://www.w3.org/2000/svg">
<path d="M5.05596 2.68209C5.02546 3.09782 4.87358 3.49545 4.61918 3.82567C4.36478 4.15588 4.01904 4.40415 3.62484 4.53968C3.23064 4.67522 2.80533 4.69205 2.40165 4.5881C1.99797 4.48415 1.6337 4.26399 1.35399 3.95492C1.07428 3.64584 0.891456 3.26147 0.828191 2.84945C0.764927 2.43743 0.824009 2.01587 0.998101 1.63712C1.17219 1.25836 1.45364 0.939054 1.80753 0.718778C2.16143 0.498502 2.5722 0.386953 2.9889 0.397977C3.56374 0.432678 4.10208 0.691251 4.48849 1.11824C4.87491 1.54523 5.07863 2.10666 5.05596 2.68209Z" fill="#4CAF4F"/>
</svg>
