<svg width="5" height="5" viewBox="0 0 5 5" fill="none" xmlns="http://www.w3.org/2000/svg">
<path d="M4.98411 2.8268C4.9556 3.24314 4.80536 3.64193 4.55207 3.97358C4.29877 4.30524 3.95361 4.55515 3.55945 4.69224C3.16529 4.82933 2.73954 4.84759 2.3351 4.74469C1.93066 4.6418 1.56536 4.42229 1.28464 4.1135C1.00392 3.80471 0.820138 3.42022 0.75614 3.00784C0.692141 2.59546 0.750768 2.17338 0.924693 1.79403C1.09862 1.41468 1.38018 1.09481 1.73441 0.874172C2.08863 0.653539 2.49989 0.541876 2.91706 0.553056C3.49004 0.587745 4.02681 0.844852 4.41294 1.2696C4.79907 1.69434 5.00402 2.25311 4.98411 2.8268Z" fill="#4CAF4F"/>
</svg>
