<svg width="137" height="286" viewBox="0 0 137 286" fill="none" xmlns="http://www.w3.org/2000/svg">
<path d="M120.718 0.892862H100.709C100.056 0.904964 99.4121 1.04557 98.8136 1.30664C98.2151 1.56772 97.6739 1.94415 97.2209 2.41443C96.7678 2.88472 96.4119 3.43964 96.1734 4.04751C95.9349 4.65538 95.8185 5.30428 95.8309 5.95714V9.58482C95.8432 10.2372 95.7267 10.8856 95.488 11.4928C95.2494 12.1001 94.8933 12.6544 94.4402 13.1238C93.9871 13.5933 93.4458 13.9687 92.8473 14.2287C92.2488 14.4887 91.605 14.628 90.9526 14.6388L51.9473 14.4631C50.6278 14.4279 49.3762 13.8704 48.4673 12.9132C47.5585 11.9559 47.0667 10.677 47.1001 9.35745V5.72977C47.1334 4.41194 46.6431 3.13461 45.7365 2.17762C44.8299 1.22063 43.5809 0.66201 42.2632 0.624143H35.2248L17.7066 0.541467C13.5398 0.516658 9.53297 2.14394 6.56341 5.06701C3.59385 7.99008 1.90355 11.9707 1.86261 16.1374L0.829085 268.752C0.819563 270.819 1.21728 272.868 1.99953 274.781C2.78178 276.695 3.93327 278.435 5.3882 279.903C6.84314 281.372 8.57305 282.539 10.4792 283.339C12.3853 284.139 14.4303 284.555 16.4974 284.565L119.519 285.04C121.588 285.05 123.638 284.652 125.552 283.869C127.467 283.086 129.209 281.934 130.678 280.478C132.147 279.022 133.316 277.291 134.116 275.384C134.916 273.476 135.333 271.43 135.343 269.362L136.376 16.7472C136.401 12.5688 134.765 8.55154 131.829 5.57856C128.893 2.60558 124.897 0.920189 120.718 0.892862Z" fill="white"/>
</svg>
