<svg width="151" height="305" viewBox="0 0 151 305" fill="none" xmlns="http://www.w3.org/2000/svg">
<path d="M126.571 304.779L23.332 304.303C17.37 304.27 11.6648 301.873 7.46938 297.637C3.27397 293.4 0.931388 287.672 0.956127 281.71L2.05166 22.9049C2.06385 19.9512 2.65804 17.0288 3.8003 14.3048C4.94255 11.5808 6.61047 9.10864 8.7087 7.02961C10.8069 4.95059 13.2943 3.30546 16.0287 2.18829C18.7631 1.07112 21.6908 0.503807 24.6446 0.518771L127.873 0.994192C133.835 1.02428 139.541 3.41942 143.739 7.65359C147.936 11.8878 150.281 17.6147 150.259 23.5767L149.164 282.372C149.152 285.327 148.558 288.25 147.416 290.975C146.274 293.7 144.606 296.174 142.508 298.254C140.41 300.335 137.923 301.982 135.188 303.102C132.454 304.221 129.526 304.791 126.571 304.779Z" fill="#455A64"/>
</svg>
